<mxfile host="app.diagrams.net" modified="2024-06-08T20:29:36.000Z" agent="Mozilla/5.0 (Windows NT 10.0; Win64; x64) AppleWebKit/537.36 (KHTML, like Gecko) Chrome/125.0.0.0 Safari/537.36" etag="scvRP1b7rno4bob0JZI1" version="23.1.6" type="github">
  <diagram name="TimeLog App" id="AGfrPkhGgoIjOt-BJV3r">
    <mxGraphModel dx="4412" dy="3034" grid="0" gridSize="10" guides="1" tooltips="1" connect="1" arrows="1" fold="1" page="1" pageScale="1" pageWidth="827" pageHeight="1169" math="0" shadow="0">
      <root>
        <mxCell id="0" />
        <mxCell id="1" parent="0" />
        <mxCell id="cJ0QfJBZ8UfFIYTIqbi1-1" style="edgeStyle=orthogonalEdgeStyle;rounded=0;orthogonalLoop=1;jettySize=auto;html=1;exitX=1;exitY=0.25;exitDx=0;exitDy=0;" edge="1" parent="1" source="dWOf83Pedq_plMjNgrLh-3" target="dWOf83Pedq_plMjNgrLh-21">
          <mxGeometry relative="1" as="geometry" />
        </mxCell>
        <mxCell id="dWOf83Pedq_plMjNgrLh-3" value="&lt;font style=&quot;font-size: 24px;&quot;&gt;Client App&lt;br&gt;Blazor&lt;/font&gt;" style="whiteSpace=wrap;html=1;aspect=fixed;" parent="1" vertex="1">
          <mxGeometry x="-797" y="259" width="135" height="135" as="geometry" />
        </mxCell>
        <mxCell id="dWOf83Pedq_plMjNgrLh-4" style="edgeStyle=orthogonalEdgeStyle;rounded=0;orthogonalLoop=1;jettySize=auto;html=1;jumpSize=16;" parent="1" source="dWOf83Pedq_plMjNgrLh-6" target="dWOf83Pedq_plMjNgrLh-21" edge="1">
          <mxGeometry relative="1" as="geometry">
            <Array as="points">
              <mxPoint x="-487" y="101" />
            </Array>
            <mxPoint x="-421" y="331" as="targetPoint" />
          </mxGeometry>
        </mxCell>
        <mxCell id="dWOf83Pedq_plMjNgrLh-5" value="&lt;font style=&quot;font-size: 16px;&quot;&gt;Http response&lt;/font&gt;" style="edgeLabel;html=1;align=center;verticalAlign=middle;resizable=0;points=[];" parent="dWOf83Pedq_plMjNgrLh-4" vertex="1" connectable="0">
          <mxGeometry x="0.3585" y="-1" relative="1" as="geometry">
            <mxPoint as="offset" />
          </mxGeometry>
        </mxCell>
        <mxCell id="dWOf83Pedq_plMjNgrLh-15" style="edgeStyle=orthogonalEdgeStyle;rounded=0;orthogonalLoop=1;jettySize=auto;html=1;" parent="1" source="dWOf83Pedq_plMjNgrLh-6" target="dWOf83Pedq_plMjNgrLh-14" edge="1">
          <mxGeometry relative="1" as="geometry" />
        </mxCell>
        <mxCell id="dWOf83Pedq_plMjNgrLh-19" style="edgeStyle=orthogonalEdgeStyle;rounded=0;orthogonalLoop=1;jettySize=auto;html=1;exitX=1;exitY=0.5;exitDx=0;exitDy=0;" parent="1" source="dWOf83Pedq_plMjNgrLh-6" target="dWOf83Pedq_plMjNgrLh-18" edge="1">
          <mxGeometry relative="1" as="geometry">
            <Array as="points">
              <mxPoint x="1042" y="100" />
            </Array>
          </mxGeometry>
        </mxCell>
        <mxCell id="dWOf83Pedq_plMjNgrLh-6" value="&lt;font style=&quot;font-size: 24px;&quot;&gt;TimeLog Api&lt;/font&gt;" style="whiteSpace=wrap;html=1;aspect=fixed;" parent="1" vertex="1">
          <mxGeometry x="527" y="30" width="141" height="141" as="geometry" />
        </mxCell>
        <mxCell id="dWOf83Pedq_plMjNgrLh-17" style="edgeStyle=orthogonalEdgeStyle;rounded=0;orthogonalLoop=1;jettySize=auto;html=1;" parent="1" source="dWOf83Pedq_plMjNgrLh-7" target="dWOf83Pedq_plMjNgrLh-16" edge="1">
          <mxGeometry relative="1" as="geometry" />
        </mxCell>
        <mxCell id="dWOf83Pedq_plMjNgrLh-20" style="edgeStyle=orthogonalEdgeStyle;rounded=0;orthogonalLoop=1;jettySize=auto;html=1;" parent="1" source="dWOf83Pedq_plMjNgrLh-7" target="dWOf83Pedq_plMjNgrLh-18" edge="1">
          <mxGeometry relative="1" as="geometry" />
        </mxCell>
        <mxCell id="dWOf83Pedq_plMjNgrLh-7" value="&lt;font style=&quot;font-size: 24px;&quot;&gt;Azure DevOps Api&lt;/font&gt;" style="whiteSpace=wrap;html=1;aspect=fixed;" parent="1" vertex="1">
          <mxGeometry x="535" y="883" width="139" height="139" as="geometry" />
        </mxCell>
        <mxCell id="dWOf83Pedq_plMjNgrLh-8" value="&lt;font style=&quot;font-size: 16px;&quot;&gt;Request queue&lt;/font&gt;" style="verticalLabelPosition=bottom;html=1;verticalAlign=top;align=center;strokeColor=none;fillColor=#00BEF2;shape=mxgraph.azure.queue_generic;pointerEvents=1;" parent="1" vertex="1">
          <mxGeometry x="436" y="301" width="177" height="59" as="geometry" />
        </mxCell>
        <mxCell id="dWOf83Pedq_plMjNgrLh-9" style="edgeStyle=orthogonalEdgeStyle;rounded=0;orthogonalLoop=1;jettySize=auto;html=1;entryX=0.435;entryY=0.085;entryDx=0;entryDy=0;entryPerimeter=0;" parent="1" source="dWOf83Pedq_plMjNgrLh-6" target="dWOf83Pedq_plMjNgrLh-8" edge="1">
          <mxGeometry relative="1" as="geometry" />
        </mxCell>
        <mxCell id="dWOf83Pedq_plMjNgrLh-10" style="edgeStyle=orthogonalEdgeStyle;rounded=0;orthogonalLoop=1;jettySize=auto;html=1;entryX=0.424;entryY=0.022;entryDx=0;entryDy=0;entryPerimeter=0;" parent="1" source="dWOf83Pedq_plMjNgrLh-8" target="dWOf83Pedq_plMjNgrLh-7" edge="1">
          <mxGeometry relative="1" as="geometry" />
        </mxCell>
        <mxCell id="dWOf83Pedq_plMjNgrLh-11" style="edgeStyle=orthogonalEdgeStyle;rounded=0;orthogonalLoop=1;jettySize=auto;html=1;entryX=0.75;entryY=1;entryDx=0;entryDy=0;" parent="1" source="dWOf83Pedq_plMjNgrLh-13" target="dWOf83Pedq_plMjNgrLh-6" edge="1">
          <mxGeometry relative="1" as="geometry">
            <mxPoint x="595" y="437" as="targetPoint" />
          </mxGeometry>
        </mxCell>
        <mxCell id="dWOf83Pedq_plMjNgrLh-12" style="edgeStyle=orthogonalEdgeStyle;rounded=0;orthogonalLoop=1;jettySize=auto;html=1;exitX=0.75;exitY=0;exitDx=0;exitDy=0;entryX=0.102;entryY=0.927;entryDx=0;entryDy=0;entryPerimeter=0;" parent="1" target="dWOf83Pedq_plMjNgrLh-13" edge="1" source="dWOf83Pedq_plMjNgrLh-7">
          <mxGeometry relative="1" as="geometry">
            <mxPoint x="579" y="658" as="sourcePoint" />
            <mxPoint x="655" y="579" as="targetPoint" />
            <Array as="points">
              <mxPoint x="654" y="883" />
            </Array>
          </mxGeometry>
        </mxCell>
        <mxCell id="dWOf83Pedq_plMjNgrLh-13" value="&lt;font style=&quot;font-size: 16px;&quot;&gt;Response queue&lt;/font&gt;" style="verticalLabelPosition=bottom;html=1;verticalAlign=top;align=center;strokeColor=none;fillColor=#00BEF2;shape=mxgraph.azure.queue_generic;pointerEvents=1;" parent="1" vertex="1">
          <mxGeometry x="620" y="304" width="177" height="59" as="geometry" />
        </mxCell>
        <mxCell id="dWOf83Pedq_plMjNgrLh-14" value="Database" style="image;html=1;image=img/lib/clip_art/computers/Database_128x128.png" parent="1" vertex="1">
          <mxGeometry x="557.5" y="-90" width="80" height="80" as="geometry" />
        </mxCell>
        <mxCell id="dWOf83Pedq_plMjNgrLh-16" value="Database" style="image;html=1;image=img/lib/clip_art/computers/Database_128x128.png" parent="1" vertex="1">
          <mxGeometry x="429" y="912.5" width="80" height="80" as="geometry" />
        </mxCell>
        <mxCell id="dWOf83Pedq_plMjNgrLh-18" value="Redis cache" style="image;sketch=0;aspect=fixed;html=1;points=[];align=center;fontSize=12;image=img/lib/mscae/Cache_Redis_Product.svg;" parent="1" vertex="1">
          <mxGeometry x="998" y="400" width="88" height="73.92" as="geometry" />
        </mxCell>
        <mxCell id="dWOf83Pedq_plMjNgrLh-22" style="edgeStyle=orthogonalEdgeStyle;rounded=0;orthogonalLoop=1;jettySize=auto;html=1;entryX=0;entryY=0.25;entryDx=0;entryDy=0;" parent="1" source="dWOf83Pedq_plMjNgrLh-21" target="dWOf83Pedq_plMjNgrLh-6" edge="1">
          <mxGeometry relative="1" as="geometry">
            <Array as="points">
              <mxPoint x="-487" y="71" />
              <mxPoint x="455" y="71" />
              <mxPoint x="455" y="65" />
            </Array>
          </mxGeometry>
        </mxCell>
        <mxCell id="cJ0QfJBZ8UfFIYTIqbi1-2" style="edgeStyle=orthogonalEdgeStyle;rounded=0;orthogonalLoop=1;jettySize=auto;html=1;entryX=1;entryY=0.75;entryDx=0;entryDy=0;" edge="1" parent="1" source="dWOf83Pedq_plMjNgrLh-21" target="dWOf83Pedq_plMjNgrLh-3">
          <mxGeometry relative="1" as="geometry" />
        </mxCell>
        <mxCell id="dWOf83Pedq_plMjNgrLh-21" value="Api Gateway" style="sketch=0;outlineConnect=0;fontColor=#232F3E;gradientColor=none;fillColor=#8C4FFF;strokeColor=none;dashed=0;verticalLabelPosition=bottom;verticalAlign=top;align=center;html=1;fontSize=12;fontStyle=0;aspect=fixed;pointerEvents=1;shape=mxgraph.aws4.gateway;" parent="1" vertex="1">
          <mxGeometry x="-525" y="285" width="76" height="78" as="geometry" />
        </mxCell>
        <mxCell id="cJ0QfJBZ8UfFIYTIqbi1-8" style="edgeStyle=orthogonalEdgeStyle;rounded=0;orthogonalLoop=1;jettySize=auto;html=1;entryX=0;entryY=0.75;entryDx=0;entryDy=0;exitX=0.5;exitY=0;exitDx=0;exitDy=0;exitPerimeter=0;" edge="1" parent="1" source="cJ0QfJBZ8UfFIYTIqbi1-10" target="dWOf83Pedq_plMjNgrLh-6">
          <mxGeometry relative="1" as="geometry">
            <mxPoint x="275.090909090909" y="227.72727272727252" as="targetPoint" />
            <Array as="points">
              <mxPoint x="321" y="394" />
              <mxPoint x="321" y="136" />
            </Array>
          </mxGeometry>
        </mxCell>
        <mxCell id="cJ0QfJBZ8UfFIYTIqbi1-9" value="&lt;font style=&quot;font-size: 17px;&quot;&gt;SendEvent&amp;nbsp;&lt;/font&gt;" style="edgeLabel;html=1;align=center;verticalAlign=middle;resizable=0;points=[];" vertex="1" connectable="0" parent="cJ0QfJBZ8UfFIYTIqbi1-8">
          <mxGeometry x="-0.0807" y="2" relative="1" as="geometry">
            <mxPoint as="offset" />
          </mxGeometry>
        </mxCell>
        <mxCell id="cJ0QfJBZ8UfFIYTIqbi1-11" style="edgeStyle=orthogonalEdgeStyle;rounded=0;orthogonalLoop=1;jettySize=auto;html=1;" edge="1" parent="1" source="cJ0QfJBZ8UfFIYTIqbi1-4" target="cJ0QfJBZ8UfFIYTIqbi1-10">
          <mxGeometry relative="1" as="geometry" />
        </mxCell>
        <mxCell id="cJ0QfJBZ8UfFIYTIqbi1-4" value="&lt;b&gt;&lt;font style=&quot;font-size: 19px;&quot;&gt;AzureDevops Service Hook&lt;/font&gt;&lt;/b&gt;" style="whiteSpace=wrap;html=1;aspect=fixed;" vertex="1" parent="1">
          <mxGeometry x="264.43" y="724" width="126" height="126" as="geometry" />
        </mxCell>
        <mxCell id="cJ0QfJBZ8UfFIYTIqbi1-6" style="edgeStyle=orthogonalEdgeStyle;rounded=0;orthogonalLoop=1;jettySize=auto;html=1;entryX=0.5;entryY=1;entryDx=0;entryDy=0;" edge="1" parent="1" source="cJ0QfJBZ8UfFIYTIqbi1-5" target="cJ0QfJBZ8UfFIYTIqbi1-4">
          <mxGeometry relative="1" as="geometry" />
        </mxCell>
        <mxCell id="cJ0QfJBZ8UfFIYTIqbi1-7" value="&lt;font style=&quot;font-size: 18px;&quot;&gt;Send Event&lt;/font&gt;" style="edgeLabel;html=1;align=center;verticalAlign=middle;resizable=0;points=[];" vertex="1" connectable="0" parent="cJ0QfJBZ8UfFIYTIqbi1-6">
          <mxGeometry x="0.0465" y="-3" relative="1" as="geometry">
            <mxPoint as="offset" />
          </mxGeometry>
        </mxCell>
        <mxCell id="cJ0QfJBZ8UfFIYTIqbi1-5" value="Az" style="sketch=0;aspect=fixed;pointerEvents=1;shadow=0;dashed=0;html=1;strokeColor=none;labelPosition=center;verticalLabelPosition=bottom;verticalAlign=top;align=center;fillColor=#00188D;shape=mxgraph.mscae.enterprise.application_server2" vertex="1" parent="1">
          <mxGeometry x="241" y="1360" width="172.86" height="201" as="geometry" />
        </mxCell>
        <mxCell id="cJ0QfJBZ8UfFIYTIqbi1-10" value="&lt;font style=&quot;font-size: 16px;&quot;&gt;Request queue&lt;/font&gt;" style="verticalLabelPosition=bottom;html=1;verticalAlign=top;align=center;strokeColor=none;fillColor=#00BEF2;shape=mxgraph.azure.queue_generic;pointerEvents=1;" vertex="1" parent="1">
          <mxGeometry x="237" y="394" width="177" height="59" as="geometry" />
        </mxCell>
        <mxCell id="cJ0QfJBZ8UfFIYTIqbi1-12" style="edgeStyle=orthogonalEdgeStyle;rounded=0;orthogonalLoop=1;jettySize=auto;html=1;entryX=1.018;entryY=0.807;entryDx=0;entryDy=0;entryPerimeter=0;" edge="1" parent="1" source="dWOf83Pedq_plMjNgrLh-7" target="cJ0QfJBZ8UfFIYTIqbi1-5">
          <mxGeometry relative="1" as="geometry">
            <Array as="points">
              <mxPoint x="605" y="1522" />
            </Array>
          </mxGeometry>
        </mxCell>
        <mxCell id="cJ0QfJBZ8UfFIYTIqbi1-13" value="&lt;font style=&quot;font-size: 19px;&quot;&gt;Request data&lt;/font&gt;" style="edgeLabel;html=1;align=center;verticalAlign=middle;resizable=0;points=[];" vertex="1" connectable="0" parent="cJ0QfJBZ8UfFIYTIqbi1-12">
          <mxGeometry x="-0.2168" y="-2" relative="1" as="geometry">
            <mxPoint as="offset" />
          </mxGeometry>
        </mxCell>
        <mxCell id="cJ0QfJBZ8UfFIYTIqbi1-14" value="&lt;font style=&quot;font-size: 16px;&quot;&gt;Azure devops&lt;/font&gt;" style="rounded=1;whiteSpace=wrap;html=1;" vertex="1" parent="1">
          <mxGeometry x="253" y="1582" width="120" height="60" as="geometry" />
        </mxCell>
      </root>
    </mxGraphModel>
  </diagram>
</mxfile>
